<svg xmlns="http://www.w3.org/2000/svg" viewBox="0 0 420 80" role="img" aria-label="VibeNaturals">
  <title>VibeNaturals</title>
  <desc>VibeNaturals horizontal header logo: circular emblem on the left with a larger wordmark and a more spacious tagline beneath it, all vertically centered.</desc>

  <defs>
    <clipPath id="circleClipHeader">
      <circle cx="40" cy="40" r="32"/>
    </clipPath>
  </defs>

  <!-- Emblem -->
  <g>
    <circle cx="40" cy="40" r="34" fill="#f4ead5" stroke="#2a4d33" stroke-width="1.2"/>
    <circle cx="40" cy="40" r="32" fill="#ffffff" stroke="#3d7a4a" stroke-width="0.4"/>

    <g clip-path="url(#circleClipHeader)">
      <path d="M 8 56 Q 40 52 72 56 L 72 80 L 8 80 Z" fill="#c8a878" opacity="0.4"/>
      <path d="M 8 60 Q 40 56 72 60 L 72 80 L 8 80 Z" fill="#c8a878" opacity="0.55"/>
    </g>

    <path d="M 40 62 L 40 38" stroke="#3d7a4a" stroke-width="1.2" stroke-linecap="round" fill="none"/>
    <path d="M 40 48 Q 28 44 23 35 Q 28 31 35 35 Q 39 40 40 48 Z" fill="#5fa86b"/>
    <path d="M 40 45 Q 52 41 57 32 Q 52 28 45 32 Q 41 37 40 45 Z" fill="#8dc596"/>
    <path d="M 40 38 Q 36 32 37.5 25 Q 40 22 42.5 25 Q 44 32 40 38 Z" fill="#5fa86b"/>

    <path d="M 18 58 L 25 58 L 25 52" stroke="#3d7a4a" stroke-width="0.6" fill="none" stroke-linecap="round"/>
    <path d="M 62 58 L 55 58 L 55 52" stroke="#3d7a4a" stroke-width="0.6" fill="none" stroke-linecap="round"/>
    <path d="M 40 65 L 40 62" stroke="#3d7a4a" stroke-width="0.6" fill="none" stroke-linecap="round"/>

    <circle cx="18" cy="58" r="1.8" fill="#f4ead5" stroke="#2a4d33" stroke-width="0.8"/>
    <circle cx="62" cy="58" r="1.8" fill="#f4ead5" stroke="#2a4d33" stroke-width="0.8"/>
    <circle cx="40" cy="66" r="1.8" fill="#f4ead5" stroke="#2a4d33" stroke-width="0.8"/>
  </g>

  <!-- Wordmark: 58px (was 50). "vibenaturals" at 58px ≈ 332px wide → ends at ~414. Tagline center: 82 + 332/2 = 248 -->
  <text x="82" y="48" font-family="'Helvetica Neue', Arial, sans-serif" font-weight="500" font-size="58" fill="#a1a1aa" letter-spacing="-1.2">vibe<tspan fill="#5fa86b">naturals</tspan></text>

  <!-- Tagline: 11px font (was 8.5), letter-spacing 5.5 (was 3.6) -->
  <text x="248" y="68" text-anchor="middle" font-family="'Helvetica Neue', Arial, sans-serif" font-weight="400" font-size="11" fill="#ffffff" letter-spacing="5.5">FEEL THE NATURE VIBE</text>
</svg>
