<svg xmlns="http://www.w3.org/2000/svg" viewBox="0 0 64 64" role="img" aria-label="VibeNaturals">
  <title>VibeNaturals</title>

  <defs>
    <clipPath id="favClip">
      <circle cx="32" cy="32" r="28"/>
    </clipPath>
  </defs>

  <!-- Background ring -->
  <circle cx="32" cy="32" r="30" fill="#f4ead5" stroke="#2a4d33" stroke-width="1.5"/>
  <circle cx="32" cy="32" r="28" fill="#ffffff"/>

  <!-- Soil -->
  <g clip-path="url(#favClip)">
    <path d="M 4 46 Q 32 42 60 46 L 60 64 L 4 64 Z" fill="#c8a878" opacity="0.5"/>
  </g>

  <!-- Stem -->
  <path d="M 32 52 L 32 28" stroke="#3d7a4a" stroke-width="1.4" stroke-linecap="round" fill="none"/>

  <!-- Leaves -->
  <path d="M 32 40 Q 20 36 16 26 Q 21 22 28 26 Q 31 32 32 40 Z" fill="#5fa86b"/>
  <path d="M 32 36 Q 44 32 48 22 Q 43 18 36 22 Q 33 28 32 36 Z" fill="#8dc596"/>
  <path d="M 32 28 Q 28 22 30 14 Q 32 11 34 14 Q 36 22 32 28 Z" fill="#5fa86b"/>

  <!-- Three nodes -->
  <path d="M 14 48 L 22 48 L 22 42" stroke="#3d7a4a" stroke-width="0.7" fill="none" stroke-linecap="round"/>
  <path d="M 50 48 L 42 48 L 42 42" stroke="#3d7a4a" stroke-width="0.7" fill="none" stroke-linecap="round"/>

  <circle cx="14" cy="48" r="2" fill="#f4ead5" stroke="#2a4d33" stroke-width="0.9"/>
  <circle cx="50" cy="48" r="2" fill="#f4ead5" stroke="#2a4d33" stroke-width="0.9"/>
  <circle cx="32" cy="55" r="2" fill="#f4ead5" stroke="#2a4d33" stroke-width="0.9"/>
</svg>
